<svg id="Layer_1" data-name="Layer 1" xmlns="http://www.w3.org/2000/svg" viewBox="0 0 402.09 169.27"><defs><style>.cls-1,.cls-3{fill:#20601b;}.cls-1,.cls-2,.cls-5,.cls-7{stroke:#fff;stroke-miterlimit:10;}.cls-2{fill:#499341;}.cls-2,.cls-5,.cls-7{stroke-width:0.25px;}.cls-4{fill:#9b9b1e;}.cls-5{fill:#c0c41c;}.cls-6{fill:#bf2121;}.cls-7{fill:#ea3636;}</style></defs><title>Logo</title><polygon class="cls-1" points="176.24 95.49 118.11 95.25 78.28 165.68 136.41 165.92 176.24 95.49"/><path class="cls-2" d="M282.35,306.84" transform="translate(-147.72 -144.91)"/><polyline class="cls-2" points="135.57 162.61 174.18 94.01 117.83 93.78 79.22 162.38"/><path class="cls-2" d="M226.18,306.71" transform="translate(-147.72 -144.91)"/><polyline class="cls-2" points="79.46 162.79 1.95 0.42 85.61 0.13 135.57 162.6"/><polygon class="cls-3" points="83.63 2.13 134.57 164.85 78.48 165.05 0 2.42 83.63 2.13"/><path class="cls-4" d="M347.27,205.62c6.48,0,10.54-4.44,10.36-10,0-5.74-3.88-10.18-10-10.18A9.86,9.86,0,0,0,338,192.4a10.87,10.87,0,0,0-.48,3.24A9.68,9.68,0,0,0,347.27,205.62Z" transform="translate(-147.72 -144.91)"/><path class="cls-5" d="M347.27,203.62c6.48,0,10.54-4.44,10.36-10,0-5.74-3.88-10.18-10-10.18A9.86,9.86,0,0,0,338,190.4a10.87,10.87,0,0,0-.48,3.24A9.68,9.68,0,0,0,347.27,203.62Z" transform="translate(-147.72 -144.91)"/><rect x="191.79" y="75.88" width="16.28" height="89.54"/><path d="M382.79,245c0-9.25-.18-16.83-.74-24.24h14.43l.92,14.8h.37c4.44-8.51,14.8-16.83,29.6-16.83,12.39,0,31.63,7.4,31.63,38.11v53.46H442.73V258.72c0-14.43-5.37-26.46-20.72-26.46-10.73,0-19.05,7.59-21.83,16.65a23.4,23.4,0,0,0-1.11,7.58v53.83H382.79Z" transform="translate(-147.72 -144.91)"/><path class="cls-6" d="M548.29,309c-4.25,2.22-13.69,5.18-25.71,5.18-27,0-44.58-18.31-44.58-45.69,0-27.56,18.87-47.54,48.1-47.54,9.62,0,18.13,2.4,22.57,4.63L545,238.15c-3.88-2.22-10-4.25-18.87-4.25-20.53,0-31.63,15.17-31.63,33.85,0,20.72,13.32,33.49,31.08,33.49a46.24,46.24,0,0,0,20-4.44Z" transform="translate(-147.72 -144.91)"/><path class="cls-7" d="M549.29,307c-4.25,2.22-13.69,5.18-25.71,5.18-27,0-44.58-18.31-44.58-45.69,0-27.56,18.87-47.54,48.1-47.54,9.62,0,18.13,2.4,22.57,4.63L546,236.15c-3.88-2.22-10-4.25-18.87-4.25-20.53,0-31.63,15.17-31.63,33.85,0,20.72,13.32,33.49,31.08,33.49a46.24,46.24,0,0,0,20-4.44Z" transform="translate(-147.72 -144.91)"/></svg>